.
 
http://www.scenetime.com    -   SceneTime [ We been having it ] !!!


How come you press harder on a remote control when you know the battery is dead? so you better seed to get speed ;)

        Seed back for speed


...................................NFO:.................................................[img]http://leetleech.org/images/13287224877766805297.jpg[/img]
[img]http://leetleech.org/images/20550898246035442943.png[/img]
[img]http://leetleech.org/images/20454063563253495500.png[/img]
[img]http://leetleech.org/images/67351399391247721664.png[/img]
[img]http://leetleech.org/images/84748874500468813039.png[/img]
[img]http://leetleech.org/images/25279081712820096915.png[/img] 
http://www.imdb.com/title/tt0458525/
General
Complete name                    : C:\Users\coop\Desktop\X-Men.Origins.Wolverine.2009.Dvd.Rip.Ac3.5.1.Xvid.TCM\X.M.O.W.TCM.avi
Format                           : AVI
Format/Info                      : Audio Video Interleave
File size                        : 1.47 GiB
Duration                         : 1h 47mn
Overall bit rate                 : 1 954 Kbps
Movie name                       : X.M.O.W.TCM
Encoded by                       : Cooperman
Writing application              : VirtualDubMod 1.5.4.1 (build 2178/release) 
Copyright                        : TCM

Video
ID                               : 0
Format                           : MPEG-4 Visual
Format profile                   : Advanced Simple@L5
Format settings, BVOP            : No
Format settings, QPel            : No
Format settings, GMC             : No warppoints
Format settings, Matrix          : Custom
Codec ID                         : XVID
Codec ID/Hint                    : XviD
Duration                         : 1h 47mn
Bit rate                         : 1 499 Kbps
Width                            : 704 pixels
Height                           : 304 pixels
Display aspect ratio             : 2.35:1
Frame rate                       : 23.976 fps
Color space                      : YUV
Chroma subsampling               : 4:2:0
Bit depth                        : 8 bits
Scan type                        : Progressive
Compression mode                 : Lossy
Bits/(Pixel*Frame)               : 0.292
Stream size                      : 1.12 GiB (77%)
Writing library                  : XviD 64

Audio
ID                               : 1
Format                           : AC-3
Format/Info                      : Audio Coding 3
Mode extension                   : CM (complete main)
Codec ID                         : 2000
Duration                         : 1h 47mn
Bit rate mode                    : Constant
Bit rate                         : 448 Kbps
Channel(s)                       : 6 channels
Channel positions                : Front: L C R, Side: L R, LFE
Sampling rate                    : 48.0 KHz
Bit depth                        : 16 bits
Compression mode                 : Lossy
Stream size                      : 344 MiB (23%)
Alignment                        : Split accross interleaves
Interleave, duration             : 96 ms (2.30 video frames)
Interleave, preload duration     : 96 ms
Language                         : English
Subs                             : No
Sample                           : Yes

souce file : X-Men.Origins.Wolverine.2009.WS.NTSC.DVD9
THANX WS! :)
107X14mb rars[main movie avi]
Sample[avi]
snaps.n.thumbs
sfv
nfo
Enjoy the movie!
t.c.m@hushmail.com
GREATINGS TO ALL THE P2P PLACES I LURK AT!
AND A FOOK YOU TO ALL RETAGERS!!